<svg width="16" height="17" viewBox="0 0 16 17" fill="none" xmlns="http://www.w3.org/2000/svg">
<path d="M7.53013 7.176C7.38834 7.03418 7.38834 6.80427 7.53013 6.66245C7.67198 6.52064 7.90189 6.52064 8.04367 6.66245L9.24199 7.86074L10.4402 6.66245C10.582 6.52064 10.8119 6.52064 10.9538 6.66245C11.0956 6.80424 11.0956 7.03418 10.9538 7.176L9.75548 8.37426L10.9538 9.57254C11.0956 9.71433 11.0956 9.94427 10.9538 10.0861C10.8119 10.2279 10.582 10.2279 10.4402 10.0861L9.24199 8.8878L8.04367 10.0861C7.90189 10.2279 7.67198 10.2279 7.53019 10.0861C7.38834 9.94424 7.38834 9.71433 7.53019 9.57251L8.72844 8.37429L7.53013 7.176Z" fill="#333399"/>
<path fill-rule="evenodd" clip-rule="evenodd" d="M6.03257 4.68421L2.34253 8.37426L6.03257 12.0643C6.30498 12.3367 6.67443 12.4897 7.05967 12.4897H12.026C12.8282 12.4897 13.4785 11.8394 13.4785 11.0372V5.71131C13.4785 4.9091 12.8282 4.25879 12.026 4.25879H7.05967C6.67443 4.25879 6.30498 4.41184 6.03257 4.68421ZM12.026 11.8603H7.05967C6.84134 11.8603 6.632 11.7736 6.47762 11.6192L3.23268 8.37426L6.47762 5.12929C6.632 4.97494 6.84134 4.88821 7.05967 4.88821H12.026C12.4805 4.88821 12.8491 5.25672 12.8491 5.71131V11.0372C12.8491 11.4918 12.4805 11.8603 12.026 11.8603Z" fill="#333399"/>
</svg>
